<svg id="Layer_1" xmlns="http://www.w3.org/2000/svg" viewBox="0 0 215.6 56.4"><style>.st0{fill:none;stroke:#474747;stroke-width:0.5;stroke-miterlimit:10;}</style><path class="st0" d="M9.4 41.5h191.8M9.4 41.2v9.6M21.3 41.2v9.6M33.3 41.2v9.6M11.8 41.2v5.6M14.1 41.2v5.6M16.5 41.2v5.6M18.9 41.2v5.6M23.7 41.2v5.6M26.1 41.2v5.6M28.5 41.2v5.6M30.9 41.2v5.6M45.3 41.2v9.6M35.7 41.2v5.6M38.1 41.2v5.6M40.5 41.2v5.6M42.9 41.2v5.6M57.3 41.2v9.6M69.2 41.2v9.6M47.7 41.2v5.6M50.1 41.2v5.6M52.5 41.2v5.6M54.9 41.2v5.6M59.7 41.2v5.6M62 41.2v5.6M64.4 41.2v5.6M66.8 41.2v5.6M81.2 41.2v9.6M71.6 41.2v5.6M74 41.2v5.6M76.4 41.2v5.6M78.8 41.2v5.6M93.2 41.2v9.6M105.2 41.2v9.6M83.6 41.2v5.6M86 41.2v5.6M88.4 41.2v5.6M90.8 41.2v5.6M95.6 41.2v5.6M98 41.2v5.6M100.4 41.2v5.6M102.8 41.2v5.6M117.1 41.2v9.6M107.6 41.2v5.6M109.9 41.2v5.6M112.3 41.2v5.6M114.7 41.2v5.6M129.1 41.2v9.6M141.1 41.2v9.6M119.5 41.2v5.6M121.9 41.2v5.6M124.3 41.2v5.6M126.7 41.2v5.6M131.5 41.2v5.6M133.9 41.2v5.6M136.3 41.2v5.6M138.7 41.2v5.6M153.1 41.2v9.6M143.5 41.2v5.6M145.9 41.2v5.6M148.3 41.2v5.6M150.7 41.2v5.6M165 41.2v9.6M155.5 41.2v5.6M157.8 41.2v5.6M160.2 41.2v5.6M162.6 41.2v5.6M177 41.2v9.6M189 41.2v9.6M167.4 41.2v5.6M169.8 41.2v5.6M172.2 41.2v5.6M174.6 41.2v5.6M179.4 41.2v5.6M181.8 41.2v5.6M184.2 41.2v5.6M186.6 41.2v5.6M201 41.2v9.6M191.4 41.2v5.6M193.8 41.2v5.6M196.2 41.2v5.6M198.6 41.2v5.6"/><g><path class="st0" d="M201.5 41.2V4.8M201.2 41h9.6M201.2 29h9.6M201.2 17h9.6M201.2 38.6h5.6M201.2 36.2h5.6M201.2 33.8h5.6M201.2 31.4h5.6M201.2 26.6h5.6M201.2 24.2h5.6M201.2 21.8h5.6M201.2 19.4h5.6M201.2 5h9.6M201.2 14.6h5.6M201.2 12.2h5.6M201.2 9.8h5.6M201.2 7.4h5.6"/></g></svg>
